<?xml version="1.0" standalone="no"?>
<!DOCTYPE svg PUBLIC "-//W3C//DTD SVG 20010904//EN"
 "http://www.w3.org/TR/2001/REC-SVG-20010904/DTD/svg10.dtd">
<svg version="1.0" xmlns="http://www.w3.org/2000/svg"
 width="447.000000pt" height="447.000000pt" viewBox="0 0 447.000000 447.000000"
 preserveAspectRatio="xMidYMid meet">
<metadata>
Created by potrace 1.11, written by Peter Selinger 2001-2013
</metadata>
<g transform="translate(0.000000,447.000000) scale(0.100000,-0.100000)"
fill="#000000" stroke="none">
<path d="M1886 4331 c-3 -5 -19 -7 -36 -6 -19 2 -27 -1 -23 -8 4 -6 0 -8 -10
-4 -10 3 -17 3 -17 -2 0 -5 -13 -7 -30 -6 -18 2 -27 -1 -23 -8 4 -6 -2 -8 -16
-4 -13 3 -24 0 -27 -7 -3 -7 -10 -13 -17 -14 -30 -2 -49 -10 -67 -25 -11 -9
-20 -14 -20 -11 0 4 -12 -1 -26 -11 -15 -9 -23 -11 -19 -4 9 14 -10 5 -37 -19
-10 -8 -18 -12 -18 -9 0 4 -9 -1 -19 -10 -11 -9 -17 -21 -14 -26 3 -6 1 -7 -5
-3 -6 3 -13 2 -17 -4 -4 -6 -11 -8 -16 -5 -5 4 -9 2 -9 -4 0 -5 -20 -31 -45
-57 -25 -25 -45 -50 -45 -55 0 -5 -15 -23 -32 -40 -18 -17 -31 -33 -28 -35 3
-2 -3 -12 -12 -24 -10 -11 -15 -20 -12 -20 9 0 -47 -73 -63 -83 -7 -5 -11 -12
-8 -18 4 -5 1 -9 -5 -9 -6 0 -8 -4 -5 -10 3 -5 2 -10 -2 -10 -5 0 -9 -8 -9
-17 0 -10 -4 -54 -8 -98 -5 -44 -8 -86 -9 -92 0 -7 -5 -13 -10 -13 -6 0 -8 -3
-5 -6 4 -3 2 -19 -2 -35 -5 -18 -5 -29 1 -29 6 0 7 -6 2 -12 -10 -17 -12 -88
-1 -82 10 6 11 -40 1 -49 -11 -12 -10 -56 2 -49 5 3 4 -1 -3 -10 -9 -12 -10
-18 -2 -23 8 -5 8 -11 -1 -21 -9 -11 -8 -18 2 -31 10 -11 10 -14 2 -9 -9 5
-13 -1 -13 -19 0 -14 -4 -24 -8 -21 -4 2 -8 -4 -8 -15 0 -10 3 -19 6 -19 6 0
5 -36 0 -50 -1 -3 -2 -8 -1 -12 1 -8 -15 -12 -31 -9 -5 0 -8 -4 -8 -10 0 -9
-4 -9 -14 0 -10 8 -19 5 -40 -14 -14 -13 -26 -28 -27 -32 0 -4 -3 -17 -5 -28
-3 -11 -7 -58 -9 -105 -2 -47 -6 -107 -8 -134 -2 -33 1 -50 10 -53 7 -3 10 -9
7 -14 -3 -6 0 -16 6 -24 7 -8 9 -15 6 -15 -4 0 -1 -7 7 -15 13 -13 32 -95 41
-175 1 -14 5 -30 8 -35 5 -9 4 -26 -3 -50 -12 -43 60 -155 100 -155 17 0 53
-35 45 -43 -3 -3 4 -22 15 -43 11 -20 18 -41 15 -46 -3 -4 0 -8 6 -8 6 0 8 -4
5 -10 -3 -5 -1 -10 5 -10 7 0 10 -7 6 -15 -3 -8 -1 -15 5 -15 6 0 8 -4 4 -9
-3 -6 3 -14 12 -20 10 -6 15 -11 11 -11 -4 0 -2 -13 3 -30 6 -16 15 -27 21
-24 5 4 5 -4 -2 -16 -9 -17 -9 -21 0 -15 9 5 10 1 5 -15 -5 -15 -4 -20 4 -16
14 9 14 0 0 -26 -6 -12 -7 -18 -1 -14 5 3 14 0 19 -7 12 -14 27 -68 24 -81 -1
-5 4 -6 11 -3 8 3 14 -2 14 -13 0 -10 -5 -16 -11 -12 -5 3 -5 -1 1 -9 7 -8 12
-30 12 -49 -1 -56 6 -100 14 -100 4 0 5 -7 2 -15 -4 -8 -3 -23 1 -32 11 -25 6
-79 -11 -118 -8 -19 -17 -51 -20 -72 -3 -21 -9 -42 -12 -48 -4 -5 -7 -21 -8
-33 -1 -25 -59 -82 -82 -82 -7 0 -15 -7 -18 -15 -4 -8 -10 -12 -15 -9 -5 3 -9
-2 -9 -10 0 -9 -5 -16 -11 -16 -5 0 -7 -5 -3 -12 4 -6 3 -8 -3 -5 -6 4 -22 -2
-37 -14 -23 -18 -52 -29 -83 -31 -7 -1 -13 -5 -13 -10 0 -5 -5 -6 -10 -3 -6 3
-13 0 -16 -8 -3 -9 -16 -18 -29 -21 -14 -4 -46 -19 -72 -35 -41 -26 -86 -49
-200 -103 -12 -6 -20 -15 -17 -19 3 -5 -2 -6 -10 -3 -8 3 -28 -2 -46 -11 -17
-9 -45 -17 -61 -17 -16 -1 -32 -6 -36 -11 -4 -6 0 -7 8 -3 8 4 5 0 -6 -8 -11
-9 -25 -14 -32 -12 -7 3 -13 1 -13 -5 0 -6 -4 -8 -9 -4 -5 3 -12 1 -16 -5 -11
-18 -104 -57 -115 -48 -5 4 -8 5 -5 2 4 -7 -6 -18 -39 -44 -18 -13 -19 -13
-11 0 5 9 0 8 -13 -4 -12 -11 -22 -16 -22 -12 0 4 -7 0 -16 -8 -8 -9 -20 -14
-25 -11 -5 4 -9 -1 -9 -10 0 -9 -4 -14 -9 -10 -5 3 -15 -1 -23 -8 -7 -8 -19
-12 -26 -9 -6 2 -12 -1 -12 -8 0 -6 -4 -9 -9 -5 -5 3 -12 1 -15 -4 -3 -5 -18
-12 -32 -15 -15 -4 -36 -18 -46 -32 -11 -13 -28 -24 -39 -24 -11 0 -17 -4 -14
-10 3 -5 1 -10 -4 -10 -8 0 -11 -78 -11 -240 l0 -240 2235 0 2235 0 -2 512 -3
513 -51 10 c-28 5 -60 17 -70 25 -16 13 -17 13 -9 0 8 -13 7 -13 -9 0 -10 8
-29 15 -42 16 -13 0 -30 6 -38 13 -8 7 -20 10 -26 6 -5 -3 -10 -1 -10 4 0 6
-3 10 -7 10 -5 -1 -10 0 -13 1 -3 1 -21 4 -40 6 -19 2 -41 5 -47 6 -7 1 -13 4
-13 8 0 4 -13 6 -30 5 -16 -1 -30 2 -30 6 0 4 -23 10 -50 14 -28 4 -47 11 -44
16 3 5 -5 9 -18 10 -13 0 -30 2 -38 4 -8 2 -27 5 -42 8 -15 3 -33 9 -39 13 -7
4 -9 3 -6 -3 4 -7 -3 -10 -18 -9 -14 0 -25 5 -25 9 0 5 -4 6 -8 3 -5 -3 -20 1
-35 9 -15 8 -43 16 -64 20 -20 3 -41 9 -47 13 -6 5 -18 8 -26 7 -8 0 -18 3
-21 7 -3 5 -19 11 -35 13 -16 2 -36 6 -44 8 -8 2 -32 7 -52 12 -21 4 -38 11
-38 16 0 5 -7 9 -15 9 -8 0 -15 5 -15 10 0 6 -7 10 -15 10 -8 0 -15 5 -15 11
0 5 -4 7 -10 4 -5 -3 -10 -2 -10 3 0 9 -55 26 -72 23 -5 0 -8 3 -8 9 0 5 -9
10 -21 10 -11 0 -18 4 -15 8 3 5 -4 15 -15 22 -10 8 -19 20 -19 28 0 7 -4 11
-9 8 -10 -6 -97 75 -93 86 1 5 -7 8 -18 8 -11 0 -20 5 -20 11 0 5 -4 8 -9 4
-5 -3 -12 -1 -16 5 -4 6 -11 8 -16 5 -5 -4 -9 -1 -9 4 0 6 -10 11 -23 11 -16
0 -28 11 -42 38 -11 20 -24 40 -30 44 -5 4 -7 8 -3 8 4 0 3 14 -2 30 -5 19 -5
28 1 25 5 -4 9 3 9 15 0 12 5 18 10 15 8 -5 16 39 11 68 0 4 4 7 10 7 5 0 7 5
4 10 -3 6 -1 10 5 10 6 0 8 5 5 10 -3 6 -1 10 4 10 6 0 10 3 10 8 -1 4 0 10 1
15 4 12 7 26 9 38 0 5 7 7 14 3 9 -6 9 -4 -1 8 -10 13 -10 17 3 22 9 3 14 10
11 15 -3 5 1 12 10 15 12 5 14 9 5 20 -13 15 -4 49 10 40 5 -3 9 2 9 10 0 9 7
17 15 17 8 1 18 3 23 4 4 2 17 6 28 10 22 7 61 71 69 113 2 12 7 27 11 34 5 7
3 8 -6 3 -9 -6 -11 -4 -5 6 5 7 10 22 11 34 5 43 36 160 49 184 7 15 15 35 17
46 1 11 7 23 11 26 4 3 9 16 10 27 1 12 4 22 8 22 4 0 6 11 4 25 -1 14 1 25 5
25 4 0 7 31 7 69 -1 47 -4 68 -11 64 -6 -4 -5 1 3 10 7 9 10 17 5 17 -5 0 -8
17 -8 37 2 44 -20 62 -73 63 -17 0 -34 3 -36 8 -3 4 -6 77 -8 162 -1 89 -7
161 -13 169 -8 11 -8 13 1 8 14 -8 13 50 -1 72 -7 11 -6 12 5 6 12 -7 12 -6 1
7 -10 13 -10 17 0 21 10 4 10 6 1 6 -7 1 -13 8 -13 16 0 8 -4 15 -8 15 -4 0
-9 8 -10 18 -3 32 -7 47 -16 61 -6 10 -5 12 2 7 8 -5 10 -2 6 8 -3 9 -9 14
-13 11 -4 -2 -7 9 -6 25 1 17 -2 30 -6 30 -5 0 -6 7 -3 15 4 8 1 15 -6 15 -6
0 -8 5 -5 10 3 6 2 10 -3 10 -5 0 -15 14 -22 30 -7 17 -19 30 -27 30 -8 0 -11
4 -8 10 3 5 -2 21 -11 35 -9 14 -13 25 -9 25 5 0 -2 8 -13 19 -12 10 -22 24
-22 30 0 6 -7 14 -15 17 -8 3 -17 14 -20 25 -4 11 -11 16 -17 13 -6 -4 -8 -2
-4 4 3 6 2 13 -3 16 -5 4 -8 17 -6 31 1 14 -2 28 -6 31 -5 3 -9 14 -9 25 0 10
-3 19 -8 19 -4 0 -13 9 -20 21 -8 12 -9 18 -3 14 8 -4 7 2 -1 19 -6 14 -15 26
-20 26 -4 0 -8 6 -8 13 0 7 -11 21 -25 31 -13 10 -22 22 -19 27 3 5 0 9 -6 9
-6 0 -18 7 -27 15 -8 8 -19 13 -24 10 -5 -4 -9 -1 -9 4 0 6 -7 11 -15 11 -8 0
-15 7 -15 15 0 9 -6 12 -17 8 -11 -4 -14 -3 -9 5 4 8 0 12 -11 12 -11 0 -25 6
-32 13 -11 10 -12 9 -6 -3 6 -11 3 -10 -12 3 -11 9 -23 14 -26 10 -4 -3 -7 -2
-7 4 0 6 -15 10 -33 10 -18 -1 -38 2 -45 7 -7 4 -12 4 -12 -1 0 -4 -4 -2 -9 5
-4 7 -17 15 -27 17 -10 2 -19 4 -19 5 0 1 -17 6 -47 13 -7 1 -17 5 -23 8 -5 4
-18 5 -27 4 -10 -2 -18 2 -18 8 0 7 -5 5 -10 -3 -5 -8 -10 -10 -10 -4 0 6 -17
10 -37 9 -21 0 -50 2 -64 6 -15 4 -33 3 -40 -2 -12 -7 -12 -9 0 -9 8 0 11 -3
8 -6 -4 -4 -13 -1 -21 5 -8 7 -23 12 -33 11 -10 -1 -20 -1 -23 0 -19 7 -41 7
-46 -1 -3 -5 -13 -5 -24 1 -11 6 -21 6 -24 1 -7 -10 -25 -9 -43 2 -6 4 -14 3
-17 -2z"/>
</g>
</svg>
